<svg width="74" height="66" viewBox="0 0 74 66" fill="none" xmlns="http://www.w3.org/2000/svg">
<path d="M0 15.6183C0 43.4434 22.3858 66 50 66C58.6973 66 66.876 63.7624 74 59.8274V20C74 8.95431 65.0457 0 54 0H2.44896C0.859336 4.91718 0 10.1666 0 15.6183Z" fill="url(#paint0_linear)"/>
<path d="M26.0605 10.64V7.68112C26.0605 7.57656 26.1093 7.52428 26.2069 7.52428H27.1688C27.2664 7.52428 27.3152 7.57656 27.3152 7.68112V14.8432C27.3152 14.9477 27.2664 15 27.1688 15H26.2069C26.1093 15 26.0605 14.9477 26.0605 14.8432V11.8006H23.112V14.8432C23.112 14.9477 23.0632 15 22.9656 15H22.0037C21.9061 15 21.8574 14.9477 21.8574 14.8432V7.68112C21.8574 7.57656 21.9061 7.52428 22.0037 7.52428H22.9656C23.0632 7.52428 23.112 7.57656 23.112 7.68112V10.64H26.0605ZM28.7846 10.0127C29.3214 9.64327 30.0045 9.45856 30.8339 9.45856C31.5101 9.45856 32.0398 9.6363 32.4232 9.99179C32.8135 10.3403 33.0087 10.8701 33.0087 11.581V14.6341C33.0087 14.7177 32.9704 14.7769 32.8937 14.8118C32.2176 15.0209 31.517 15.1255 30.7921 15.1255C30.116 15.1255 29.5584 14.9861 29.1192 14.7072C28.6801 14.4284 28.4605 13.9858 28.4605 13.3794C28.4605 12.8287 28.6662 12.414 29.0774 12.1352C29.4956 11.8494 30.0533 11.7065 30.7503 11.7065C31.0291 11.7065 31.3776 11.7344 31.7958 11.7901V11.5915C31.7958 11.2151 31.7157 10.9467 31.5554 10.7864C31.402 10.6191 31.1337 10.5355 30.7503 10.5355C30.2345 10.5355 29.7884 10.647 29.412 10.8701C29.3283 10.9328 29.2586 10.9189 29.2029 10.8282L28.7846 10.1904C28.7359 10.1138 28.7359 10.0545 28.7846 10.0127ZM29.6838 13.3689C29.6838 13.6059 29.7849 13.7837 29.987 13.9022C30.1892 14.0137 30.4575 14.0695 30.7921 14.0695C31.1127 14.0695 31.4473 14.0276 31.7958 13.944V12.7625C31.4194 12.7067 31.0814 12.6789 30.7817 12.6789C30.0498 12.6789 29.6838 12.9089 29.6838 13.3689ZM40.9605 15H34.4153C34.3107 15 34.2585 14.9477 34.2585 14.8432V9.7304C34.2585 9.63282 34.3107 9.58403 34.4153 9.58403H35.304C35.4016 9.58403 35.4504 9.63282 35.4504 9.7304V13.9126H37.0919V9.7304C37.0919 9.63282 37.1442 9.58403 37.2487 9.58403H38.127C38.2316 9.58403 38.2838 9.63282 38.2838 9.7304V13.9126H39.9254V9.7304C39.9254 9.63282 39.9742 9.58403 40.0717 9.58403H40.9605C41.065 9.58403 41.1173 9.63282 41.1173 9.7304V14.8432C41.1173 14.9477 41.065 15 40.9605 15ZM23.1957 28.2226C23.0632 28.8847 22.8611 29.3518 22.5892 29.6236C22.3174 29.8885 21.8852 30.0314 21.2928 30.0523C21.1952 30.0523 21.1464 30 21.1464 29.8954V29.1322C21.1464 29.0416 21.1952 28.9858 21.2928 28.9649C21.4949 28.951 21.6517 28.8673 21.7633 28.714C21.8818 28.5606 21.9793 28.2853 22.056 27.888C22.1745 27.1979 22.2616 26.1454 22.3174 24.7304C22.3313 24.6328 22.3836 24.584 22.4742 24.584H26.0291C26.1337 24.584 26.186 24.6328 26.186 24.7304V29.8432C26.186 29.9477 26.1337 30 26.0291 30H25.1299C25.0254 30 24.9731 29.9477 24.9731 29.8432V25.6505H23.4466C23.4117 26.6473 23.3281 27.5046 23.1957 28.2226ZM29.5693 26.5706C29.5763 25.9363 29.7854 25.4274 30.1966 25.0441C30.6149 24.6537 31.162 24.4586 31.8382 24.4586C32.5352 24.4586 33.0928 24.6572 33.511 25.0545C33.9293 25.4449 34.1384 25.9607 34.1384 26.6019V28.0239C34.1384 28.6582 33.9293 29.167 33.511 29.5504C33.0928 29.9338 32.5352 30.1255 31.8382 30.1255C31.162 30.1255 30.6149 29.9373 30.1966 29.5609C29.7854 29.1775 29.5763 28.6756 29.5693 28.0553L29.5588 27.7311H28.6806V29.8432C28.6806 29.9477 28.6283 30 28.5237 30H27.6559C27.5514 30 27.4991 29.9477 27.4991 29.8432V24.7304C27.4991 24.6328 27.5514 24.584 27.6559 24.584H28.5237C28.6283 24.584 28.6806 24.6328 28.6806 24.7304V26.6438H29.5588L29.5693 26.5706ZM31.0435 28.7767C31.2317 28.951 31.5001 29.0381 31.8486 29.0381C32.1971 29.0381 32.462 28.951 32.6432 28.7767C32.8314 28.5955 32.9255 28.3411 32.9255 28.0134V26.6124C32.9255 26.2778 32.8314 26.0164 32.6432 25.8282C32.462 25.64 32.1971 25.5459 31.8486 25.5459C31.5001 25.5459 31.2317 25.64 31.0435 25.8282C30.8623 26.0164 30.7717 26.2778 30.7717 26.6124V28.0134C30.7717 28.3411 30.8623 28.5955 31.0435 28.7767ZM36.4505 25.1068C36.813 24.9325 37.2173 24.8454 37.6634 24.8454C38.3256 24.8454 38.8623 25.0336 39.2735 25.41C39.6848 25.7794 39.8904 26.3057 39.8904 26.9888V27.9193C39.8904 28.6512 39.6639 29.2019 39.2108 29.5713C38.7647 29.9408 38.2071 30.1255 37.5379 30.1255C36.8897 30.1255 36.3425 29.9408 35.8964 29.5713C35.4572 29.1949 35.2377 28.6408 35.2377 27.9089V24.7513C35.2377 24.11 35.4468 23.6047 35.865 23.2353C36.2902 22.8658 36.7921 22.6254 37.3706 22.5138C38.2001 22.3674 38.7263 22.2385 38.9494 22.127C39.047 22.0851 39.1167 22.1026 39.1585 22.1792L39.5454 22.8379C39.5872 22.9355 39.5698 23.0052 39.4931 23.0471C39.2491 23.1865 38.6845 23.3572 37.7993 23.5594C37.6041 23.6082 37.4403 23.657 37.3079 23.7058C37.1754 23.7546 37.036 23.8243 36.8897 23.9149C36.7433 24.0055 36.6318 24.124 36.5551 24.2704C36.4854 24.4167 36.4505 24.591 36.4505 24.7931V25.1068ZM37.5274 29.0381C37.8551 29.0381 38.1234 28.9475 38.3325 28.7662C38.5486 28.585 38.6566 28.3062 38.6566 27.9298V27.0097C38.6566 26.2569 38.2872 25.8805 37.5484 25.8805C37.1371 25.8805 36.7712 25.9642 36.4505 26.1314V27.9193C36.4505 28.3027 36.5516 28.585 36.7537 28.7662C36.9559 28.9475 37.2138 29.0381 37.5274 29.0381ZM42.2097 30H41.1746C41.0701 30 41.0178 29.9477 41.0178 29.8432V24.7304C41.0178 24.6328 41.0701 24.584 41.1746 24.584H42.0634C42.1679 24.584 42.2202 24.6328 42.2202 24.7304V26.8633C42.2202 27.2746 42.2132 27.7451 42.1993 28.2748H42.2097C42.4119 27.8287 42.743 27.2258 43.203 26.466L44.2486 24.6781C44.3043 24.6154 44.3671 24.584 44.4368 24.584H45.4823C45.5869 24.584 45.6392 24.6328 45.6392 24.7304V29.8432C45.6392 29.9477 45.5869 30 45.4823 30H44.5936C44.489 30 44.4368 29.9477 44.4368 29.8432V27.7416C44.4368 27.3303 44.4437 26.8738 44.4577 26.3719H44.4472C44.3078 26.6926 43.9802 27.2816 43.4644 28.1389L42.3979 29.8954C42.3561 29.9651 42.2934 30 42.2097 30ZM48.0059 30H47.1171C47.0126 30 46.9603 29.9477 46.9603 29.8432V24.7304C46.9603 24.6328 47.0126 24.584 47.1171 24.584H48.1313C48.2219 24.584 48.2812 24.6189 48.3091 24.6886L49.8147 27.6684H49.8356L51.3412 24.6886C51.3691 24.6189 51.4283 24.584 51.5189 24.584H52.5331C52.6377 24.584 52.69 24.6328 52.69 24.7304V29.8432C52.69 29.9477 52.6377 30 52.5331 30H51.6444C51.5468 30 51.498 29.9477 51.498 29.8432V27.9925C51.498 27.6161 51.505 27.0934 51.5189 26.4242H51.5085C51.2506 27.0097 51.0659 27.414 50.9543 27.637L50.2747 28.9858C50.2468 29.0555 50.1876 29.0904 50.097 29.0904H49.5533C49.4627 29.0904 49.4034 29.0555 49.3755 28.9858L48.6959 27.637C48.5356 27.3025 48.3509 26.8982 48.1418 26.4242H48.1313C48.1522 27.4279 48.1627 27.9507 48.1627 27.9925V29.8432C48.1627 29.9477 48.1104 30 48.0059 30ZM56.3267 30H54.1624C54.0578 30 54.0056 29.9477 54.0056 29.8432V24.7304C54.0056 24.6328 54.0578 24.584 54.1624 24.584H55.0616C55.1661 24.584 55.2184 24.6328 55.2184 24.7304V26.3406H56.3267C56.968 26.3406 57.4838 26.5044 57.8741 26.832C58.2714 27.1596 58.4701 27.6126 58.4701 28.1912C58.4701 28.8116 58.2784 29.2681 57.895 29.5609C57.5186 29.8536 56.9958 30 56.3267 30ZM55.2184 27.3338V28.9963H56.1176C56.8704 28.9963 57.2468 28.7209 57.2468 28.1703C57.2537 27.8845 57.1631 27.6754 56.9749 27.5429C56.7867 27.4035 56.5009 27.3338 56.1176 27.3338H55.2184ZM60.1011 30H59.202C59.0974 30 59.0451 29.9477 59.0451 29.8432V24.7304C59.0451 24.6328 59.0974 24.584 59.202 24.584H60.1011C60.2057 24.584 60.258 24.6328 60.258 24.7304V29.8432C60.258 29.9477 60.2057 30 60.1011 30ZM62.7635 30H61.7284C61.6238 30 61.5715 29.9477 61.5715 29.8432V24.7304C61.5715 24.6328 61.6238 24.584 61.7284 24.584H62.6171C62.7216 24.584 62.7739 24.6328 62.7739 24.7304V26.8633C62.7739 27.2746 62.767 27.7451 62.753 28.2748H62.7635C62.9656 27.8287 63.2967 27.2258 63.7567 26.466L64.8023 24.6781C64.8581 24.6154 64.9208 24.584 64.9905 24.584H66.0361C66.1406 24.584 66.1929 24.6328 66.1929 24.7304V29.8432C66.1929 29.9477 66.1406 30 66.0361 30H65.1473C65.0428 30 64.9905 29.9477 64.9905 29.8432V27.7416C64.9905 27.3303 64.9975 26.8738 65.0114 26.3719H65.001C64.8615 26.6926 64.5339 27.2816 64.0181 28.1389L62.9517 29.8954C62.9098 29.9651 62.8471 30 62.7635 30ZM65.5133 22.472C65.4575 22.9042 65.2833 23.2492 64.9905 23.5071C64.7047 23.758 64.3179 23.8835 63.8299 23.8835C63.342 23.8835 62.9552 23.758 62.6694 23.5071C62.3836 23.2562 62.2128 22.9181 62.157 22.4929C62.1431 22.3884 62.1884 22.3291 62.293 22.3152L62.8785 22.2315C62.9691 22.2246 63.0249 22.2664 63.0458 22.357C63.1434 22.7752 63.4047 22.9843 63.8299 22.9843C64.2551 22.9843 64.5165 22.7752 64.6141 22.357C64.635 22.2664 64.6943 22.2246 64.7918 22.2315L65.3669 22.3152C65.4715 22.3291 65.5202 22.3814 65.5133 22.472ZM22.8297 40.1068C23.1922 39.9325 23.5965 39.8454 24.0426 39.8454C24.7047 39.8454 25.2415 40.0336 25.6527 40.41C26.064 40.7794 26.2696 41.3057 26.2696 41.9888V42.9193C26.2696 43.6512 26.0431 44.2019 25.59 44.5713C25.1439 44.9408 24.5863 45.1255 23.9171 45.1255C23.2689 45.1255 22.7217 44.9408 22.2756 44.5713C21.8364 44.1949 21.6169 43.6408 21.6169 42.9089V39.7513C21.6169 39.11 21.826 38.6047 22.2442 38.2353C22.6694 37.8658 23.1713 37.6254 23.7498 37.5138C24.5793 37.3674 25.1055 37.2385 25.3286 37.127C25.4262 37.0851 25.4959 37.1026 25.5377 37.1792L25.9246 37.8379C25.9664 37.9355 25.949 38.0052 25.8723 38.0471C25.6283 38.1865 25.0637 38.3572 24.1785 38.5594C23.9833 38.6082 23.8195 38.657 23.6871 38.7058C23.5546 38.7546 23.4152 38.8243 23.2689 38.9149C23.1225 39.0055 23.011 39.124 22.9343 39.2704C22.8646 39.4167 22.8297 39.591 22.8297 39.7931V40.1068ZM23.9066 44.0381C24.2343 44.0381 24.5026 43.9475 24.7117 43.7662C24.9278 43.585 25.0358 43.3062 25.0358 42.9298V42.0097C25.0358 41.2569 24.6664 40.8805 23.9276 40.8805C23.5163 40.8805 23.1504 40.9642 22.8297 41.1314V42.9193C22.8297 43.3027 22.9308 43.585 23.1329 43.7662C23.3351 43.9475 23.593 44.0381 23.9066 44.0381ZM27.5016 39.835C28.1428 39.584 28.8468 39.4586 29.6136 39.4586C30.3385 39.4586 30.9205 39.6502 31.3597 40.0336C31.7988 40.417 32.0184 40.9886 32.0184 41.7483V42.8984C32.0184 43.5746 31.8023 44.1148 31.3701 44.519C30.9379 44.9233 30.3838 45.1255 29.7077 45.1255C29.3243 45.1255 28.9549 45.0488 28.5994 44.8954V46.8297C28.5994 46.9343 28.5471 46.9866 28.4426 46.9866H27.5434C27.4388 46.9866 27.3865 46.9343 27.3865 46.8297V40.0022C27.3865 39.9186 27.4249 39.8628 27.5016 39.835ZM29.6031 44.059C30.3908 44.059 30.7846 43.6756 30.7846 42.9089V41.7379C30.7846 41.3057 30.6835 40.9955 30.4814 40.8073C30.2792 40.6191 29.9795 40.525 29.5822 40.525C29.164 40.525 28.8364 40.5738 28.5994 40.6714V43.7662C28.8852 43.9614 29.2197 44.059 29.6031 44.059ZM37.5368 41.6019V42.658C37.5368 42.7555 37.4846 42.8043 37.38 42.8043H34.2015V43.0971C34.2015 43.4108 34.2991 43.6512 34.4943 43.8185C34.6964 43.9788 34.9683 44.059 35.3098 44.059C35.8186 44.059 36.3101 43.8987 36.784 43.578C36.8677 43.5223 36.9374 43.5327 36.9932 43.6094L37.4218 44.1845C37.4915 44.2611 37.4811 44.3343 37.3905 44.404C36.784 44.885 36.0765 45.1255 35.268 45.1255C34.6267 45.1255 34.083 44.9512 33.6369 44.6027C33.1978 44.2472 32.9782 43.7418 32.9782 43.0866V41.6019C32.9782 40.884 33.2013 40.3473 33.6474 39.9918C34.0935 39.6363 34.6372 39.4586 35.2784 39.4586C35.9127 39.4586 36.446 39.6363 36.8781 39.9918C37.3173 40.3473 37.5368 40.884 37.5368 41.6019ZM36.3554 41.5915C36.3554 41.229 36.2543 40.9607 36.0522 40.7864C35.85 40.6122 35.5921 40.525 35.2784 40.525C34.5605 40.525 34.2015 40.8805 34.2015 41.5915V41.8633H36.3554V41.5915ZM39.6846 45H38.7854C38.6808 45 38.6285 44.9477 38.6285 44.8432V39.7304C38.6285 39.6328 38.6808 39.584 38.7854 39.584H39.6846C39.7891 39.584 39.8414 39.6328 39.8414 39.7304V41.6542H41.8698V39.7304C41.8698 39.6328 41.922 39.584 42.0266 39.584H42.9258C43.0303 39.584 43.0826 39.6328 43.0826 39.7304V44.8432C43.0826 44.9477 43.0303 45 42.9258 45H42.0266C41.922 45 41.8698 44.9477 41.8698 44.8432V42.7311H39.8414V44.8432C39.8414 44.9477 39.7891 45 39.6846 45ZM44.9203 46.4115H44.0734C43.9758 46.4115 43.927 46.3627 43.927 46.2651V44.0799C43.927 43.9823 43.9758 43.9335 44.0734 43.9335H44.3034C44.5334 43.7732 44.7111 43.4108 44.8366 42.8462C44.9621 42.2746 45.0841 41.236 45.2026 39.7304C45.2165 39.6328 45.2688 39.584 45.3594 39.584H48.8306C48.9352 39.584 48.9875 39.6328 48.9875 39.7304V43.9335H49.5207C49.6253 43.9335 49.6775 43.9858 49.6775 44.0904V46.2651C49.6775 46.3627 49.6253 46.4115 49.5207 46.4115H48.6738C48.5692 46.4115 48.517 46.3627 48.517 46.2651V45H45.0771V46.2651C45.0771 46.3627 45.0248 46.4115 44.9203 46.4115ZM46.3318 40.6505C46.1923 42.3791 45.9519 43.4735 45.6103 43.9335H47.7851V40.6505H46.3318Z" fill="white"/>
<defs>
<linearGradient id="paint0_linear" x1="37" y1="0" x2="37" y2="66" gradientUnits="userSpaceOnUse">
<stop stop-color="#92EFFA"/>
<stop offset="1" stop-color="#1BC8D8"/>
</linearGradient>
</defs>
</svg>
