<svg width="74" height="66" viewBox="0 0 74 66" fill="none" xmlns="http://www.w3.org/2000/svg">
<path d="M0 15.6183C0 43.4434 22.3858 66 50 66C58.6973 66 66.876 63.7624 74 59.8274V20C74 8.95431 65.0457 0 54 0H2.44896C0.859336 4.91718 0 10.1666 0 15.6183Z" fill="url(#paint0_linear)"/>
<path d="M24.7723 33H22.9511C22.7394 33 22.6335 32.8941 22.6335 32.6824V22.9835C22.6335 22.8 22.7111 22.6729 22.8664 22.6024C24.137 22.0518 25.5417 21.7765 27.0805 21.7765C28.6194 21.7765 29.8194 22.1647 30.6805 22.9412C31.5558 23.7035 31.9935 24.8965 31.9935 26.52V32.6824C31.9935 32.8941 31.8947 33 31.697 33H29.8547C29.6429 33 29.537 32.8941 29.537 32.6824V26.5624C29.537 25.6165 29.3323 24.9529 28.9229 24.5718C28.5135 24.1765 27.8994 23.9788 27.0805 23.9788C26.3464 23.9788 25.6829 24.0565 25.09 24.2118V32.6824C25.09 32.8941 24.9841 33 24.7723 33ZM43.4399 26.1176V28.2565C43.4399 28.4541 43.334 28.5529 43.1222 28.5529H36.6846V29.1459C36.6846 29.7812 36.8822 30.2682 37.2775 30.6071C37.6869 30.9318 38.2375 31.0941 38.9293 31.0941C39.9599 31.0941 40.9552 30.7694 41.9152 30.12C42.0846 30.0071 42.2257 30.0282 42.3387 30.1835L43.2069 31.3482C43.3481 31.5035 43.3269 31.6518 43.1434 31.7929C41.9152 32.7671 40.4822 33.2541 38.8446 33.2541C37.5457 33.2541 36.4446 32.9012 35.541 32.1953C34.6516 31.4753 34.2069 30.4518 34.2069 29.1247V26.1176C34.2069 24.6635 34.6587 23.5765 35.5622 22.8565C36.4657 22.1365 37.5669 21.7765 38.8657 21.7765C40.1505 21.7765 41.2305 22.1365 42.1057 22.8565C42.9952 23.5765 43.4399 24.6635 43.4399 26.1176ZM41.0469 26.0965C41.0469 25.3624 40.8422 24.8188 40.4328 24.4659C40.0234 24.1129 39.501 23.9365 38.8657 23.9365C37.4116 23.9365 36.6846 24.6565 36.6846 26.0965V26.6471H41.0469V26.0965ZM49.9109 33H47.7933C47.6098 33 47.4968 32.9082 47.4545 32.7247L44.4686 22.3694C44.398 22.1435 44.4756 22.0306 44.7015 22.0306H46.6074C46.7909 22.0306 46.9039 22.1153 46.9462 22.2847L47.7509 25.7576C47.8356 26.1671 48.0262 27 48.3227 28.2565C48.6333 29.4988 48.8027 30.1835 48.8309 30.3106H48.8733C49.0145 29.6612 49.3603 28.2635 49.9109 26.1176L50.9274 22.4329C50.9698 22.2635 51.0827 22.1788 51.2662 22.1788H53.2356C53.4192 22.1788 53.5321 22.2635 53.5745 22.4329L54.6121 26.1176C55.0356 27.7976 55.3745 29.1953 55.6286 30.3106H55.6921C55.7627 30 56.1227 28.4824 56.7721 25.7576L57.5556 22.2847C57.598 22.1153 57.718 22.0306 57.9156 22.0306H59.8003C60.0403 22.0306 60.125 22.1435 60.0545 22.3694L57.0686 32.7247C57.0262 32.9082 56.9133 33 56.7298 33H54.6121C54.4286 33 54.3156 32.9082 54.2733 32.7247L53.0874 28.4259C52.7203 27.0424 52.4592 25.9482 52.3039 25.1435H52.2192C52.0215 26.0753 51.7533 27.1694 51.4145 28.4259L50.2498 32.7247C50.2074 32.9082 50.0945 33 49.9109 33Z" fill="white"/>
<defs>
<linearGradient id="paint0_linear" x1="37" y1="0" x2="37" y2="66" gradientUnits="userSpaceOnUse">
<stop stop-color="#92EFFA"/>
<stop offset="1" stop-color="#1BC8D8"/>
</linearGradient>
</defs>
</svg>
