<svg width="20" height="20" viewBox="0 0 20 20" fill="none" xmlns="http://www.w3.org/2000/svg">
<path d="M9.99837 0C4.47646 0 0 4.47659 0 9.99831C0 15.52 4.47646 19.9971 9.99831 19.9971C15.5202 19.9971 19.9969 15.5202 19.9969 9.99831C19.9969 4.47639 15.5202 0 9.99837 0ZM10.6888 11.2209C10.6883 11.2472 10.6843 11.2735 10.6807 11.2998C10.6781 11.3195 10.6769 11.3397 10.6724 11.3591C10.6679 11.3793 10.6603 11.3993 10.6538 11.4194C10.646 11.4438 10.6387 11.4682 10.6285 11.4912C10.6266 11.4952 10.6259 11.4994 10.6242 11.5034C10.6091 11.5356 10.5916 11.5657 10.5725 11.5942C10.5713 11.596 10.5697 11.5977 10.5685 11.5994C10.5467 11.6314 10.5218 11.6605 10.4957 11.6877C10.4884 11.6952 10.481 11.7019 10.4734 11.709C10.4504 11.7309 10.4262 11.751 10.4005 11.7693C10.3925 11.7751 10.3849 11.7811 10.3766 11.7866C10.3436 11.8082 10.309 11.8272 10.273 11.8428C10.2652 11.8463 10.2571 11.8483 10.2491 11.8515C10.2187 11.8632 10.1879 11.8729 10.1562 11.8803C10.1448 11.8831 10.1335 11.8855 10.1219 11.8876C10.0811 11.8951 10.0398 11.9002 9.99791 11.9002C9.98944 11.9002 9.98078 11.8976 9.97231 11.8973C9.93218 11.8957 9.89246 11.8926 9.85426 11.8845C9.84233 11.8819 9.8306 11.8767 9.81866 11.8734C9.78307 11.8637 9.74827 11.853 9.71508 11.8381C9.71128 11.8362 9.70728 11.8359 9.70348 11.8341L5.86967 10.0258C5.52425 9.86293 5.37627 9.45078 5.53911 9.10536C5.70196 8.76014 6.1141 8.61196 6.45952 8.77481L9.30687 10.1176V4.14937C9.30687 3.76749 9.61649 3.45786 9.99837 3.45786C10.3803 3.45786 10.6899 3.76749 10.6899 4.14937V11.2085H10.69C10.69 11.2126 10.6888 11.2167 10.6888 11.2209Z" fill="#1BC8D8"/>
</svg>
